<mxfile host="app.diagrams.net" modified="2023-12-09T17:08:21.242Z" agent="Mozilla/5.0 (X11; Linux x86_64) AppleWebKit/537.36 (KHTML, like Gecko) Chrome/119.0.0.0 Safari/537.36" etag="RDZwQZzJPnFa447U1aF9" version="22.1.7" type="device">
  <diagram name="Page-1" id="XWfKoSDUo84gQvGor6Ie">
    <mxGraphModel dx="1179" dy="654" grid="1" gridSize="10" guides="1" tooltips="1" connect="1" arrows="1" fold="1" page="1" pageScale="1" pageWidth="827" pageHeight="1169" math="0" shadow="0">
      <root>
        <mxCell id="0" />
        <mxCell id="1" parent="0" />
        <mxCell id="0hRB7bltux3N-oxABUT9-37" value="" style="shape=cube;whiteSpace=wrap;html=1;boundedLbl=1;backgroundOutline=1;darkOpacity=0.05;darkOpacity2=0.1;fillColor=#f5f5f5;fontColor=#333333;strokeColor=#666666;size=30;" vertex="1" parent="1">
          <mxGeometry x="70" y="750" width="360" height="120" as="geometry" />
        </mxCell>
        <mxCell id="0hRB7bltux3N-oxABUT9-2" value="" style="shape=cube;whiteSpace=wrap;html=1;boundedLbl=1;backgroundOutline=1;darkOpacity=0.05;darkOpacity2=0.1;size=30;fillColor=#f8cecc;strokeColor=#b85450;" vertex="1" parent="1">
          <mxGeometry x="70" y="510" width="360" height="270" as="geometry" />
        </mxCell>
        <mxCell id="0hRB7bltux3N-oxABUT9-62" value="&lt;font style=&quot;font-size: 23px;&quot; face=&quot;Courier New&quot;&gt;&lt;b&gt;Les appels systÃ¨me&lt;/b&gt;&lt;/font&gt;" style="shape=cube;whiteSpace=wrap;html=1;boundedLbl=1;backgroundOutline=1;darkOpacity=0.05;darkOpacity2=0.1;size=30;fillColor=#e1d5e7;strokeColor=#9673a6;" vertex="1" parent="1">
          <mxGeometry x="70" y="460" width="360" height="80" as="geometry" />
        </mxCell>
        <mxCell id="0hRB7bltux3N-oxABUT9-1" value="" style="shape=cube;whiteSpace=wrap;html=1;boundedLbl=1;backgroundOutline=1;darkOpacity=0.05;darkOpacity2=0.1;size=30;fillColor=#dae8fc;strokeColor=#6c8ebf;" vertex="1" parent="1">
          <mxGeometry x="70" y="220" width="360" height="270" as="geometry" />
        </mxCell>
        <mxCell id="0hRB7bltux3N-oxABUT9-8" value="" style="shadow=0;dashed=0;html=1;strokeColor=none;fillColor=#4495D1;labelPosition=center;verticalLabelPosition=bottom;verticalAlign=top;align=center;outlineConnect=0;shape=mxgraph.veeam.interface;" vertex="1" parent="1">
          <mxGeometry x="140" y="285.2" width="44.8" height="44.8" as="geometry" />
        </mxCell>
        <mxCell id="0hRB7bltux3N-oxABUT9-49" value="" style="edgeStyle=orthogonalEdgeStyle;rounded=0;orthogonalLoop=1;jettySize=auto;html=1;" edge="1" parent="1" source="0hRB7bltux3N-oxABUT9-9" target="0hRB7bltux3N-oxABUT9-18">
          <mxGeometry relative="1" as="geometry" />
        </mxCell>
        <mxCell id="0hRB7bltux3N-oxABUT9-9" value="" style="shadow=0;dashed=0;html=1;strokeColor=none;fillColor=#4495D1;labelPosition=center;verticalLabelPosition=bottom;verticalAlign=top;align=center;outlineConnect=0;shape=mxgraph.veeam.interface;" vertex="1" parent="1">
          <mxGeometry x="320" y="380" width="70" height="80" as="geometry" />
        </mxCell>
        <mxCell id="0hRB7bltux3N-oxABUT9-10" value="" style="shadow=0;dashed=0;html=1;strokeColor=none;fillColor=#4495D1;labelPosition=center;verticalLabelPosition=bottom;verticalAlign=top;align=center;outlineConnect=0;shape=mxgraph.veeam.interface;" vertex="1" parent="1">
          <mxGeometry x="120" y="420" width="50" height="50" as="geometry" />
        </mxCell>
        <mxCell id="0hRB7bltux3N-oxABUT9-11" value="" style="shadow=0;dashed=0;html=1;strokeColor=none;fillColor=#4495D1;labelPosition=center;verticalLabelPosition=bottom;verticalAlign=top;align=center;outlineConnect=0;shape=mxgraph.veeam.interface;" vertex="1" parent="1">
          <mxGeometry x="390" y="260" width="24" height="20" as="geometry" />
        </mxCell>
        <mxCell id="0hRB7bltux3N-oxABUT9-12" value="" style="shadow=0;dashed=0;html=1;strokeColor=none;fillColor=#4495D1;labelPosition=center;verticalLabelPosition=bottom;verticalAlign=top;align=center;outlineConnect=0;shape=mxgraph.veeam.interface;" vertex="1" parent="1">
          <mxGeometry x="184.8" y="330" width="70" height="80" as="geometry" />
        </mxCell>
        <mxCell id="0hRB7bltux3N-oxABUT9-50" value="" style="edgeStyle=orthogonalEdgeStyle;rounded=0;orthogonalLoop=1;jettySize=auto;html=1;" edge="1" parent="1" source="0hRB7bltux3N-oxABUT9-13" target="0hRB7bltux3N-oxABUT9-14">
          <mxGeometry relative="1" as="geometry" />
        </mxCell>
        <mxCell id="0hRB7bltux3N-oxABUT9-57" value="" style="edgeStyle=orthogonalEdgeStyle;rounded=0;orthogonalLoop=1;jettySize=auto;html=1;" edge="1" parent="1" source="0hRB7bltux3N-oxABUT9-13" target="0hRB7bltux3N-oxABUT9-17">
          <mxGeometry relative="1" as="geometry" />
        </mxCell>
        <mxCell id="0hRB7bltux3N-oxABUT9-13" value="" style="shadow=0;dashed=0;html=1;strokeColor=none;fillColor=#4495D1;labelPosition=center;verticalLabelPosition=bottom;verticalAlign=top;align=center;outlineConnect=0;shape=mxgraph.veeam.interface;" vertex="1" parent="1">
          <mxGeometry x="300" y="260" width="50" height="50" as="geometry" />
        </mxCell>
        <mxCell id="0hRB7bltux3N-oxABUT9-14" value="" style="shadow=0;dashed=0;html=1;strokeColor=none;fillColor=#4495D1;labelPosition=center;verticalLabelPosition=bottom;verticalAlign=top;align=center;outlineConnect=0;shape=mxgraph.veeam.interface;" vertex="1" parent="1">
          <mxGeometry x="250" y="420" width="50" height="50" as="geometry" />
        </mxCell>
        <mxCell id="0hRB7bltux3N-oxABUT9-17" value="" style="shape=image;html=1;verticalAlign=top;verticalLabelPosition=bottom;labelBackgroundColor=#ffffff;imageAspect=0;aspect=fixed;image=https://cdn1.iconfinder.com/data/icons/ionicons-fill-vol-2/512/terminal-128.png" vertex="1" parent="1">
          <mxGeometry x="202" y="262" width="48" height="48" as="geometry" />
        </mxCell>
        <mxCell id="0hRB7bltux3N-oxABUT9-18" value="" style="shape=image;html=1;verticalAlign=top;verticalLabelPosition=bottom;labelBackgroundColor=#ffffff;imageAspect=0;aspect=fixed;image=https://cdn1.iconfinder.com/data/icons/ionicons-fill-vol-2/512/terminal-128.png" vertex="1" parent="1">
          <mxGeometry x="366" y="320" width="48" height="48" as="geometry" />
        </mxCell>
        <mxCell id="0hRB7bltux3N-oxABUT9-19" value="" style="shape=image;html=1;verticalAlign=top;verticalLabelPosition=bottom;labelBackgroundColor=#ffffff;imageAspect=0;aspect=fixed;image=https://cdn1.iconfinder.com/data/icons/ionicons-fill-vol-2/512/terminal-128.png" vertex="1" parent="1">
          <mxGeometry x="195.8" y="421" width="48" height="48" as="geometry" />
        </mxCell>
        <mxCell id="0hRB7bltux3N-oxABUT9-52" value="" style="edgeStyle=orthogonalEdgeStyle;rounded=0;orthogonalLoop=1;jettySize=auto;html=1;" edge="1" parent="1" source="0hRB7bltux3N-oxABUT9-20" target="0hRB7bltux3N-oxABUT9-10">
          <mxGeometry relative="1" as="geometry" />
        </mxCell>
        <mxCell id="0hRB7bltux3N-oxABUT9-20" value="" style="shape=image;html=1;verticalAlign=top;verticalLabelPosition=bottom;labelBackgroundColor=#ffffff;imageAspect=0;aspect=fixed;image=https://cdn1.iconfinder.com/data/icons/ionicons-fill-vol-2/512/terminal-128.png" vertex="1" parent="1">
          <mxGeometry x="110.00000000000001" y="346" width="48" height="48" as="geometry" />
        </mxCell>
        <mxCell id="0hRB7bltux3N-oxABUT9-47" value="" style="edgeStyle=orthogonalEdgeStyle;rounded=0;orthogonalLoop=1;jettySize=auto;html=1;" edge="1" parent="1" source="0hRB7bltux3N-oxABUT9-22" target="0hRB7bltux3N-oxABUT9-33">
          <mxGeometry relative="1" as="geometry" />
        </mxCell>
        <mxCell id="0hRB7bltux3N-oxABUT9-48" value="" style="edgeStyle=orthogonalEdgeStyle;rounded=0;orthogonalLoop=1;jettySize=auto;html=1;" edge="1" parent="1" source="0hRB7bltux3N-oxABUT9-22" target="0hRB7bltux3N-oxABUT9-36">
          <mxGeometry relative="1" as="geometry" />
        </mxCell>
        <mxCell id="0hRB7bltux3N-oxABUT9-22" value="" style="ellipse;whiteSpace=wrap;html=1;aspect=fixed;" vertex="1" parent="1">
          <mxGeometry x="230" y="614" width="85" height="85" as="geometry" />
        </mxCell>
        <mxCell id="0hRB7bltux3N-oxABUT9-21" value="" style="shape=image;html=1;verticalAlign=top;verticalLabelPosition=bottom;labelBackgroundColor=#ffffff;imageAspect=0;aspect=fixed;image=https://cdn1.iconfinder.com/data/icons/logo-s-icon-pack-collection/517/linux-128.png;imageBackground=default;" vertex="1" parent="1">
          <mxGeometry x="248" y="635" width="49" height="49" as="geometry" />
        </mxCell>
        <mxCell id="0hRB7bltux3N-oxABUT9-29" value="" style="shadow=0;dashed=0;html=1;strokeColor=#b85450;fillColor=#FF3333;labelPosition=center;verticalLabelPosition=bottom;verticalAlign=top;align=center;outlineConnect=0;shape=mxgraph.veeam.2d.service;" vertex="1" parent="1">
          <mxGeometry x="373.4" y="635" width="33.2" height="33.2" as="geometry" />
        </mxCell>
        <mxCell id="0hRB7bltux3N-oxABUT9-42" value="" style="edgeStyle=orthogonalEdgeStyle;rounded=0;orthogonalLoop=1;jettySize=auto;html=1;" edge="1" parent="1" source="0hRB7bltux3N-oxABUT9-30" target="0hRB7bltux3N-oxABUT9-36">
          <mxGeometry relative="1" as="geometry" />
        </mxCell>
        <mxCell id="0hRB7bltux3N-oxABUT9-30" value="" style="shadow=0;dashed=0;html=1;strokeColor=#b85450;fillColor=#FF3333;labelPosition=center;verticalLabelPosition=bottom;verticalAlign=top;align=center;outlineConnect=0;shape=mxgraph.veeam.2d.service;" vertex="1" parent="1">
          <mxGeometry x="151.60000000000002" y="570" width="33.2" height="33.2" as="geometry" />
        </mxCell>
        <mxCell id="0hRB7bltux3N-oxABUT9-31" value="" style="shadow=0;dashed=0;html=1;strokeColor=#b85450;fillColor=#FF3333;labelPosition=center;verticalLabelPosition=bottom;verticalAlign=top;align=center;outlineConnect=0;shape=mxgraph.veeam.2d.service;" vertex="1" parent="1">
          <mxGeometry x="345.6" y="554" width="68.4" height="60" as="geometry" />
        </mxCell>
        <mxCell id="0hRB7bltux3N-oxABUT9-32" value="" style="shadow=0;dashed=0;html=1;strokeColor=#b85450;fillColor=#FF3333;labelPosition=center;verticalLabelPosition=bottom;verticalAlign=top;align=center;outlineConnect=0;shape=mxgraph.veeam.2d.service;" vertex="1" parent="1">
          <mxGeometry x="120" y="710" width="65.2" height="61" as="geometry" />
        </mxCell>
        <mxCell id="0hRB7bltux3N-oxABUT9-44" value="" style="edgeStyle=orthogonalEdgeStyle;rounded=0;orthogonalLoop=1;jettySize=auto;html=1;" edge="1" parent="1" source="0hRB7bltux3N-oxABUT9-33" target="0hRB7bltux3N-oxABUT9-41">
          <mxGeometry relative="1" as="geometry" />
        </mxCell>
        <mxCell id="0hRB7bltux3N-oxABUT9-33" value="" style="shadow=0;dashed=0;html=1;strokeColor=#b85450;fillColor=#FF3333;labelPosition=center;verticalLabelPosition=bottom;verticalAlign=top;align=center;outlineConnect=0;shape=mxgraph.veeam.2d.service;" vertex="1" parent="1">
          <mxGeometry x="339.4" y="684" width="50.6" height="46" as="geometry" />
        </mxCell>
        <mxCell id="0hRB7bltux3N-oxABUT9-43" value="" style="edgeStyle=orthogonalEdgeStyle;rounded=0;orthogonalLoop=1;jettySize=auto;html=1;" edge="1" parent="1" source="0hRB7bltux3N-oxABUT9-34" target="0hRB7bltux3N-oxABUT9-31">
          <mxGeometry relative="1" as="geometry" />
        </mxCell>
        <mxCell id="0hRB7bltux3N-oxABUT9-34" value="" style="shadow=0;dashed=0;html=1;strokeColor=#b85450;fillColor=#FF3333;labelPosition=center;verticalLabelPosition=bottom;verticalAlign=top;align=center;outlineConnect=0;shape=mxgraph.veeam.2d.service;" vertex="1" parent="1">
          <mxGeometry x="238.6" y="548.2" width="58.4" height="55" as="geometry" />
        </mxCell>
        <mxCell id="0hRB7bltux3N-oxABUT9-45" value="" style="edgeStyle=orthogonalEdgeStyle;rounded=0;orthogonalLoop=1;jettySize=auto;html=1;" edge="1" parent="1" source="0hRB7bltux3N-oxABUT9-35" target="0hRB7bltux3N-oxABUT9-39">
          <mxGeometry relative="1" as="geometry" />
        </mxCell>
        <mxCell id="0hRB7bltux3N-oxABUT9-35" value="" style="shadow=0;dashed=0;html=1;strokeColor=#b85450;fillColor=#FF3333;labelPosition=center;verticalLabelPosition=bottom;verticalAlign=top;align=center;outlineConnect=0;shape=mxgraph.veeam.2d.service;" vertex="1" parent="1">
          <mxGeometry x="243.8" y="710" width="42.4" height="35" as="geometry" />
        </mxCell>
        <mxCell id="0hRB7bltux3N-oxABUT9-36" value="" style="shadow=0;dashed=0;html=1;strokeColor=#b85450;fillColor=#FF3333;labelPosition=center;verticalLabelPosition=bottom;verticalAlign=top;align=center;outlineConnect=0;shape=mxgraph.veeam.2d.service;" vertex="1" parent="1">
          <mxGeometry x="140" y="650" width="20" height="23.1" as="geometry" />
        </mxCell>
        <mxCell id="0hRB7bltux3N-oxABUT9-38" value="" style="sketch=0;pointerEvents=1;shadow=0;dashed=0;html=1;strokeColor=none;fillColor=#333333;labelPosition=center;verticalLabelPosition=bottom;verticalAlign=top;align=center;outlineConnect=0;shape=mxgraph.veeam2.hardware_controller;" vertex="1" parent="1">
          <mxGeometry x="127.6" y="805" width="50" height="40" as="geometry" />
        </mxCell>
        <mxCell id="0hRB7bltux3N-oxABUT9-39" value="" style="outlineConnect=0;dashed=0;verticalLabelPosition=bottom;verticalAlign=top;align=center;html=1;shape=mxgraph.aws3.hardware_board;fillColor=#333333;gradientColor=none;" vertex="1" parent="1">
          <mxGeometry x="248" y="800" width="42" height="50" as="geometry" />
        </mxCell>
        <mxCell id="0hRB7bltux3N-oxABUT9-41" value="" style="sketch=0;pointerEvents=1;shadow=0;dashed=0;html=1;strokeColor=none;fillColor=#434445;aspect=fixed;labelPosition=center;verticalLabelPosition=bottom;verticalAlign=top;align=center;outlineConnect=0;shape=mxgraph.vvd.ssd;" vertex="1" parent="1">
          <mxGeometry x="330" y="810" width="50" height="35.5" as="geometry" />
        </mxCell>
        <mxCell id="0hRB7bltux3N-oxABUT9-46" value="" style="endArrow=classic;html=1;rounded=0;" edge="1" parent="1" source="0hRB7bltux3N-oxABUT9-32" target="0hRB7bltux3N-oxABUT9-38">
          <mxGeometry width="50" height="50" relative="1" as="geometry">
            <mxPoint x="390" y="680" as="sourcePoint" />
            <mxPoint x="440" y="630" as="targetPoint" />
          </mxGeometry>
        </mxCell>
        <mxCell id="0hRB7bltux3N-oxABUT9-58" value="&lt;b&gt;&lt;font color=&quot;#ff3333&quot; face=&quot;Courier New&quot; style=&quot;font-size: 20px;&quot;&gt;Kernel Land&lt;/font&gt;&lt;/b&gt;" style="text;html=1;strokeColor=none;fillColor=none;align=center;verticalAlign=middle;whiteSpace=wrap;rounded=0;rotation=-90;" vertex="1" parent="1">
          <mxGeometry x="-18" y="646.55" width="210" height="30" as="geometry" />
        </mxCell>
        <mxCell id="0hRB7bltux3N-oxABUT9-60" value="&lt;b&gt;&lt;font face=&quot;Courier New&quot; style=&quot;font-size: 20px;&quot;&gt;User Land&lt;/font&gt;&lt;/b&gt;" style="text;html=1;strokeColor=none;fillColor=none;align=center;verticalAlign=middle;whiteSpace=wrap;rounded=0;rotation=-90;fontColor=#003366;" vertex="1" parent="1">
          <mxGeometry x="-18" y="345.99999999999994" width="210" height="30" as="geometry" />
        </mxCell>
        <mxCell id="0hRB7bltux3N-oxABUT9-61" value="&lt;b style=&quot;font-size: 14px;&quot;&gt;&lt;font color=&quot;#666666&quot; face=&quot;Courier New&quot; style=&quot;font-size: 14px;&quot;&gt;Hardware&lt;/font&gt;&lt;/b&gt;" style="text;html=1;strokeColor=none;fillColor=none;align=center;verticalAlign=middle;whiteSpace=wrap;rounded=0;rotation=-90;fontSize=14;" vertex="1" parent="1">
          <mxGeometry x="47" y="795" width="80" height="30" as="geometry" />
        </mxCell>
        <mxCell id="0hRB7bltux3N-oxABUT9-64" value="" style="endArrow=classic;html=1;rounded=0;fontFamily=Helvetica;fontSize=12;fontColor=default;entryX=0.794;entryY=1.004;entryDx=0;entryDy=0;entryPerimeter=0;fillColor=#e1d5e7;strokeColor=#9673a6;strokeWidth=2;" edge="1" parent="1" source="0hRB7bltux3N-oxABUT9-9" target="0hRB7bltux3N-oxABUT9-1">
          <mxGeometry width="50" height="50" relative="1" as="geometry">
            <mxPoint x="310" y="520" as="sourcePoint" />
            <mxPoint x="360" y="470" as="targetPoint" />
          </mxGeometry>
        </mxCell>
        <mxCell id="0hRB7bltux3N-oxABUT9-66" value="" style="endArrow=classic;html=1;rounded=0;fontFamily=Helvetica;fontSize=12;fontColor=default;exitX=0.789;exitY=1.025;exitDx=0;exitDy=0;exitPerimeter=0;fillColor=#e1d5e7;strokeColor=#9673a6;strokeWidth=2;" edge="1" parent="1" source="0hRB7bltux3N-oxABUT9-62" target="0hRB7bltux3N-oxABUT9-31">
          <mxGeometry width="50" height="50" relative="1" as="geometry">
            <mxPoint x="310" y="520" as="sourcePoint" />
            <mxPoint x="360" y="470" as="targetPoint" />
          </mxGeometry>
        </mxCell>
        <mxCell id="0hRB7bltux3N-oxABUT9-68" value="" style="endArrow=classic;html=1;rounded=0;fontFamily=Helvetica;fontSize=12;fontColor=default;entryX=0.567;entryY=0.375;entryDx=0;entryDy=0;entryPerimeter=0;strokeWidth=2;fillColor=#e1d5e7;strokeColor=#9673a6;" edge="1" parent="1">
          <mxGeometry width="50" height="50" relative="1" as="geometry">
            <mxPoint x="290.39111111111106" y="470" as="sourcePoint" />
            <mxPoint x="290" y="490" as="targetPoint" />
          </mxGeometry>
        </mxCell>
        <mxCell id="0hRB7bltux3N-oxABUT9-69" value="" style="endArrow=classic;html=1;rounded=0;fontFamily=Helvetica;fontSize=12;fontColor=default;fillColor=#e1d5e7;strokeColor=#9673a6;strokeWidth=2;entryX=0.211;entryY=1.008;entryDx=0;entryDy=0;entryPerimeter=0;" edge="1" parent="1" target="0hRB7bltux3N-oxABUT9-1">
          <mxGeometry width="50" height="50" relative="1" as="geometry">
            <mxPoint x="144.5" y="470" as="sourcePoint" />
            <mxPoint x="146" y="490" as="targetPoint" />
          </mxGeometry>
        </mxCell>
        <mxCell id="0hRB7bltux3N-oxABUT9-70" value="" style="endArrow=classic;html=1;rounded=0;fontFamily=Helvetica;fontSize=12;fontColor=default;fillColor=#e1d5e7;strokeColor=#9673a6;strokeWidth=2;exitX=0.228;exitY=1.007;exitDx=0;exitDy=0;exitPerimeter=0;" edge="1" parent="1" source="0hRB7bltux3N-oxABUT9-62" target="0hRB7bltux3N-oxABUT9-30">
          <mxGeometry width="50" height="50" relative="1" as="geometry">
            <mxPoint x="154.5" y="480" as="sourcePoint" />
            <mxPoint x="156" y="502" as="targetPoint" />
          </mxGeometry>
        </mxCell>
        <mxCell id="0hRB7bltux3N-oxABUT9-71" value="" style="endArrow=classic;html=1;rounded=0;fontFamily=Helvetica;fontSize=12;fontColor=default;exitX=0.614;exitY=1.001;exitDx=0;exitDy=0;exitPerimeter=0;fillColor=#e1d5e7;strokeColor=#9673a6;strokeWidth=2;" edge="1" parent="1" source="0hRB7bltux3N-oxABUT9-62" target="0hRB7bltux3N-oxABUT9-29">
          <mxGeometry width="50" height="50" relative="1" as="geometry">
            <mxPoint x="364" y="552" as="sourcePoint" />
            <mxPoint x="450" y="590" as="targetPoint" />
            <Array as="points">
              <mxPoint x="291" y="550" />
              <mxPoint x="330" y="550" />
              <mxPoint x="330" y="650" />
            </Array>
          </mxGeometry>
        </mxCell>
      </root>
    </mxGraphModel>
  </diagram>
</mxfile>
